<?xml version="1.0" encoding="UTF-8" standalone="no"?>
<!-- Generator: Adobe Illustrator 19.0.0, SVG Export Plug-In . SVG Version: 6.00 Build 0)  -->

<svg
   version="1.1"
   id="Capa_1"
   x="0px"
   y="0px"
   viewBox="0 0 463 463"
   style="enable-background:new 0 0 463 463;"
   xml:space="preserve"
   sodipodi:docname="churreria.svg"
   inkscape:version="1.2.1 (9c6d41e410, 2022-07-14)"
   xmlns:inkscape="http://www.inkscape.org/namespaces/inkscape"
   xmlns:sodipodi="http://sodipodi.sourceforge.net/DTD/sodipodi-0.dtd"
   xmlns="http://www.w3.org/2000/svg"
   xmlns:svg="http://www.w3.org/2000/svg"><defs
   id="defs2310">
	
	
	
	
	
</defs><sodipodi:namedview
   id="namedview2308"
   pagecolor="#ffffff"
   bordercolor="#666666"
   borderopacity="1.0"
   inkscape:showpageshadow="2"
   inkscape:pageopacity="0.0"
   inkscape:pagecheckerboard="0"
   inkscape:deskcolor="#d1d1d1"
   showgrid="false"
   inkscape:zoom="1.6889849"
   inkscape:cx="165.48402"
   inkscape:cy="231.5"
   inkscape:window-width="1920"
   inkscape:window-height="1027"
   inkscape:window-x="-8"
   inkscape:window-y="-8"
   inkscape:window-maximized="1"
   inkscape:current-layer="Capa_1" />
<ellipse
   style="enable-background:new 0 0 463 463;fill:#800080;stroke-width:56.693;stroke-linecap:round"
   id="path2952"
   cx="228.24361"
   cy="230.61189"
   rx="219.95459"
   ry="218.77046" /><ellipse
   style="enable-background:new 0 0 463 463;fill:#803300;stroke-width:56.6929;stroke-linecap:round"
   id="path2527"
   cx="306.98914"
   cy="137.06458"
   rx="53.582485"
   ry="56.542839" /><path
   d="m 385.873,266.835 c -3.925,-4.898 -9.523,-7.976 -15.762,-8.664 l -14.668,-1.619 c -0.118,-1.867 -0.447,-3.724 -1.009,-5.528 l -4.766,-15.272 c -3.859,-12.371 -17.062,-19.293 -29.41,-15.442 l -36.52,11.268 -42.881,-18.974 c -0.037,-0.073 -0.067,-0.148 -0.107,-0.22 l -35.297,-64.311 c -6.235,-11.359 -20.55,-15.527 -31.908,-9.293 l -14.027,7.698 c -9.116,5.004 -13.595,15.211 -11.788,24.918 l -34.709,-15.358 c -5.741,-2.542 -12.126,-2.694 -17.981,-0.43 -5.855,2.263 -10.478,6.67 -13.018,12.41 l -6.474,14.631 c -5.243,11.85 0.131,25.756 12.006,31.012 l 40.66,17.813 -12.557,-1.386 c -6.239,-0.689 -12.374,1.093 -17.272,5.019 -4.899,3.925 -7.976,9.522 -8.665,15.761 l -1.755,15.904 c -1.014,9.188 3.442,17.739 10.754,22.405 l -18.214,5.682 c -5.992,1.869 -10.897,5.96 -13.813,11.52 -2.915,5.559 -3.491,11.92 -1.622,17.912 l 4.765,15.274 c 3.135,10.049 12.435,16.503 22.447,16.503 2.313,0 4.665,-0.345 6.986,-1.069 l 126.271,-39.395 47.862,87.202 c 3.02,5.503 8.002,9.501 14.029,11.256 2.178,0.635 4.398,0.949 6.605,0.948 3.9,0 7.76,-0.98 11.274,-2.91 l 7.002,-3.844 c 0.004,-0.002 0.007,-0.003 0.011,-0.005 0.005,-0.002 0.009,-0.006 0.013,-0.008 l 6.999,-3.842 c 5.503,-3.02 9.5,-8.002 11.256,-14.029 1.755,-6.026 1.059,-12.376 -1.962,-17.879 l -32.436,-59.095 67.005,7.395 v 0 c 0.878,0.097 1.753,0.145 2.625,0.145 5.316,0 10.438,-1.791 14.648,-5.163 4.898,-3.926 7.976,-9.523 8.664,-15.762 l 0.877,-7.944 c 0,-0.002 10e-4,-0.005 10e-4,-0.007 0,-0.002 0,-0.005 0,-0.007 l 0.877,-7.946 c 0.691,-6.242 -1.092,-12.376 -5.016,-17.274 z m -61.169,-32.199 c 4.471,-1.395 9.25,1.109 10.646,5.584 l 0.138,0.443 -32.933,10.052 -22.068,-2.436 z m -132.4,-79.346 25.973,47.322 -13.56,-6 -24.393,-44.442 0.439,-0.241 c 4.107,-2.254 9.285,-0.748 11.541,3.361 z m -28.929,15.879 c -2.255,-4.109 -0.747,-9.286 3.361,-11.541 l 0.439,-0.241 14.943,27.224 -13.56,-6 z m -62.927,-1.57 c 2.118,-0.818 4.427,-0.764 6.504,0.155 l 154.947,68.562 -13.104,4.043 -153.258,-67.814 0.202,-0.457 c 0.919,-2.077 2.591,-3.671 4.709,-4.489 z m -6.849,30.333 c -4.286,-1.896 -6.23,-6.927 -4.334,-11.213 l 0.202,-0.458 117.233,51.874 -28.513,-3.147 z m 14.164,46.88 c 1.522,-1.22 3.375,-1.867 5.298,-1.867 0.315,0 0.632,0.018 0.95,0.053 l 254.456,28.084 c 2.256,0.249 4.281,1.361 5.7,3.133 1.419,1.772 2.064,3.991 1.815,6.247 l -0.055,0.498 -271.353,-29.949 0.055,-0.498 c 0.249,-2.257 1.363,-4.282 3.134,-5.701 z m -27.786,66.531 c 1.054,-2.011 2.829,-3.49 4.996,-4.167 l 44.824,-13.984 c 0.115,-0.036 0.224,-0.083 0.336,-0.124 l 22.369,2.469 -72.963,22.763 -0.149,-0.478 c -0.676,-2.168 -0.468,-4.468 0.587,-6.479 z m 14.824,27.336 c -2.167,0.677 -4.469,0.469 -6.479,-0.587 -2.011,-1.054 -3.49,-2.828 -4.167,-4.995 l -0.149,-0.478 104.919,-32.734 c 0.235,-0.073 0.463,-0.159 0.686,-0.253 l 22.415,2.474 z m 196.825,58.979 c -2.18,-0.635 -3.981,-2.081 -5.074,-4.071 l -46.403,-84.543 8.766,-2.735 49.617,90.398 -0.439,0.241 c -1.989,1.095 -4.287,1.347 -6.467,0.71 z m 23.855,-19.95 c 1.092,1.991 1.345,4.288 0.709,6.468 -0.635,2.18 -2.081,3.981 -4.071,5.074 l -0.438,0.24 -44.629,-81.311 10.929,1.206 z m 55.611,-75.642 c -1.771,1.419 -3.99,2.063 -6.247,1.814 0,0 0,0 0,0 L 110.391,277.796 c -4.659,-0.514 -8.031,-4.723 -7.517,-9.381 l 0.055,-0.497 271.353,29.949 -0.055,0.497 c -0.249,2.258 -1.363,4.282 -3.135,5.702 z"
   id="path2267" /><path
   d="M 307.5,207 C 344.72,207 375,176.72 375,139.5 375,102.28 344.72,72 307.5,72 270.28,72 240,102.28 240,139.5 c 0,37.22 30.28,67.5 67.5,67.5 z m 0,-120 c 28.949,0 52.5,23.552 52.5,52.5 0,28.948 -23.551,52.5 -52.5,52.5 C 278.551,192 255,168.448 255,139.5 255,110.552 278.551,87 307.5,87 Z"
   id="path2269" /><path
   d="m 307.5,119 c 11.304,0 20.5,9.196 20.5,20.5 0,4.143 3.358,7.5 7.5,7.5 4.142,0 7.5,-3.357 7.5,-7.5 0,-19.575 -15.925,-35.5 -35.5,-35.5 -4.142,0 -7.5,3.357 -7.5,7.5 0,4.143 3.358,7.5 7.5,7.5 z"
   id="path2271" /><path
   d="m 307.5,175 c 4.142,0 7.5,-3.357 7.5,-7.5 0,-4.143 -3.358,-7.5 -7.5,-7.5 -5.557,0 -10.758,-2.187 -14.647,-6.158 -2.898,-2.959 -7.647,-3.008 -10.606,-0.11 -2.959,2.898 -3.009,7.646 -0.111,10.606 C 288.87,171.214 297.878,175 307.5,175 Z"
   id="path2273" />
<g
   id="g2277">
</g>
<g
   id="g2279">
</g>
<g
   id="g2281">
</g>
<g
   id="g2283">
</g>
<g
   id="g2285">
</g>
<g
   id="g2287">
</g>
<g
   id="g2289">
</g>
<g
   id="g2291">
</g>
<g
   id="g2293">
</g>
<g
   id="g2295">
</g>
<g
   id="g2297">
</g>
<g
   id="g2299">
</g>
<g
   id="g2301">
</g>
<g
   id="g2303">
</g>
<g
   id="g2305">
</g>
<path
   style="fill:#aa4400;stroke-width:56.6929;stroke-linecap:round"
   d="m 209.29731,224.60783 c -21.65501,-9.61007 -55.86238,-24.7725 -76.01635,-33.69428 -20.15398,-8.92178 -36.77548,-16.3533 -36.936664,-16.51448 -0.161184,-0.16118 0.163401,-0.98971 0.721299,-1.84117 1.328015,-2.02681 4.750795,-3.43069 7.413875,-3.04087 1.62183,0.23741 151.51492,66.14529 155.48156,68.36513 0.66796,0.37381 -0.5894,0.97048 -4.54964,2.15899 -3.01,0.90333 -5.75815,1.73178 -6.10702,1.84099 -0.34886,0.1092 -18.35204,-7.66423 -40.00706,-17.27431 z"
   id="path2826" /><path
   style="fill:#aa4400;stroke-width:56.6929;stroke-linecap:round"
   d="m 210.59468,198.97336 c -2.70567,-1.23109 -5.19801,-2.51697 -5.53855,-2.85751 -1.15283,-1.15284 -24.15779,-43.50756 -23.87747,-43.96113 0.15302,-0.24758 1.23108,-0.62891 2.39569,-0.84739 2.52703,-0.47407 6.60041,1.25218 7.91688,3.35508 1.18141,1.88716 25.50302,46.16317 25.50302,46.4267 0,0.56133 -1.8872,-0.0626 -6.39957,-2.11575 z"
   id="path2828" /><path
   style="fill:#aa4400;stroke-width:56.6929;stroke-linecap:round"
   d="m 174.00931,182.78333 -5.38839,-2.40609 -3.06476,-5.96643 c -1.68561,-3.28154 -3.0575,-6.63667 -3.04863,-7.45585 0.0207,-1.90996 1.83801,-5.30477 3.3922,-6.33672 1.15018,-0.76369 1.51684,-0.23379 7.94397,11.48065 3.70598,6.7547 6.82695,12.49239 6.9355,12.7504 0.36847,0.87587 -1.36951,0.34549 -6.76989,-2.06596 z"
   id="path2830" /><path
   style="fill:#aa4400;stroke-width:56.6929;stroke-linecap:round"
   d="m 292.08264,249.33215 c -4.45371,-0.52696 -8.24586,-1.10902 -8.42699,-1.29346 -0.18114,-0.18444 9.40785,-3.3415 21.30886,-7.01568 24.12209,-7.44717 24.32173,-7.47475 27.93745,-3.85903 1.10998,1.10998 1.90608,2.35435 1.76911,2.76525 -0.27096,0.81288 -31.37179,10.55731 -33.30662,10.43555 -0.65128,-0.041 -4.82809,-0.50567 -9.28181,-1.03263 z"
   id="path2832" /><path
   style="fill:#aa4400;stroke-width:56.6929;stroke-linecap:round"
   d="m 353.46675,280.26198 c -16.43882,-1.86632 -154.24835,-17.10018 -216.40217,-23.9217 -34.1741,-3.75068 -31.97187,-3.42477 -31.97187,-4.73164 0,-1.56836 2.89515,-4.74795 5.20011,-5.71103 1.73012,-0.72289 3.08774,-0.71296 10.09287,0.0738 4.45162,0.49996 43.2629,4.78296 86.2473,9.51778 157.51321,17.3504 163.05477,17.98599 164.83291,18.9055 2.08551,1.07846 4.20354,4.33606 4.20354,6.46519 0,1.9773 0.62887,1.99424 -22.20269,-0.59787 z"
   id="path2834" /><path
   style="fill:#aa4400;stroke-width:56.6929;stroke-linecap:round"
   d="m 188.32455,237.88316 -10.01945,-1.1699 -42.37889,-18.52931 C 88.475541,197.43713 89.106777,197.78269 89.106777,192.55276 c 0,-1.66098 0.23652,-3.16614 0.525599,-3.3448 0.395283,-0.2443 59.362544,25.57249 112.264044,49.15095 l 1.77621,0.79167 -2.66432,-0.0488 c -1.46538,-0.0268 -7.17307,-0.57522 -12.68376,-1.21867 z"
   id="path2836" /><path
   style="fill:#aa4400;stroke-width:56.6929;stroke-linecap:round"
   d="M 341.32928,303.06518 C 317.8963,300.41776 171.83568,284.2813 135.5844,280.33494 c -13.35122,-1.45344 -25.24935,-2.91475 -26.44029,-3.24737 -2.99676,-0.83696 -5.82761,-4.17113 -5.82761,-6.86376 v -2.08793 l 2.5163,0.34228 c 1.38397,0.18825 21.83264,2.46583 45.4415,5.06128 47.6797,5.2417 111.38219,12.26396 178.36157,19.66171 48.10748,5.31339 45.48795,4.80473 43.13367,8.37568 -1.85294,2.81052 -4.10681,3.93208 -7.75739,3.86021 -1.79102,-0.0353 -12.44831,-1.1026 -23.68287,-2.37186 z"
   id="path2838" /><path
   style="fill:#aa4400;stroke-width:56.6929;stroke-linecap:round"
   d="m 79.396697,318.26318 c -0.498077,-1.9845 1.205024,-6.00696 3.120958,-7.37123 0.860858,-0.61298 11.919025,-4.3537 24.573705,-8.31271 l 23.00851,-7.19819 10.00525,1.02775 c 5.50289,0.56527 9.80088,1.22171 9.55109,1.45877 -0.40277,0.38224 -68.753675,21.8511 -69.567846,21.8511 -0.179499,0 -0.490749,-0.65497 -0.691667,-1.45549 z"
   id="path2840" /><path
   style="fill:#aa4400;stroke-width:56.6929;stroke-linecap:round"
   d="m 89.907024,340.3983 c -1.682632,-0.49816 -5.536819,-4.09577 -5.536819,-5.16824 0,-0.23833 23.710075,-7.82853 52.689045,-16.86709 l 52.68906,-16.43375 9.33045,0.9744 c 5.13174,0.53593 9.52776,1.15236 9.76893,1.36985 0.38287,0.34529 -111.723552,35.63545 -115.596411,36.38878 -0.814099,0.15836 -2.319013,0.0396 -3.344255,-0.26395 z"
   id="path2842" /><path
   style="fill:#aa4400;stroke-width:56.6929;stroke-linecap:round"
   d="m 290.11509,398.55793 c -0.97692,-0.59729 -2.0799,-1.4622 -2.45108,-1.92202 -0.94336,-1.16868 -47.07404,-85.32463 -46.86288,-85.49172 0.0946,-0.0749 1.92983,-0.66385 4.07827,-1.30884 l 3.90626,-1.1727 24.59487,44.75275 c 21.61244,39.32594 24.4815,44.8425 23.65993,45.49285 -1.36297,1.07891 -4.87862,0.90107 -6.92537,-0.35032 z"
   id="path2844" /><path
   style="fill:#aa4400;stroke-width:56.6929;stroke-linecap:round"
   d="m 311.32092,390.02717 c -1.94072,-3.02591 -43.31293,-78.89044 -43.12491,-79.07846 0.13221,-0.13222 2.32637,-0.0557 4.87592,0.16995 4.57262,0.40477 4.65176,0.4398 5.83109,2.58094 41.18725,74.77813 39.08091,70.33618 35.54879,74.96703 -1.71393,2.24708 -2.37739,2.53539 -3.13089,1.36054 z"
   id="path2846" /></svg>
