<?xml version="1.0" encoding="UTF-8" standalone="no"?>
<!-- Generator: Adobe Illustrator 19.0.0, SVG Export Plug-In . SVG Version: 6.00 Build 0)  -->

<svg
   version="1.1"
   id="Capa_1"
   x="0px"
   y="0px"
   viewBox="0 0 463 463"
   style="enable-background:new 0 0 463 463;"
   xml:space="preserve"
   sodipodi:docname="churreria.svg"
   inkscape:version="1.2.1 (9c6d41e410, 2022-07-14)"
   xmlns:inkscape="http://www.inkscape.org/namespaces/inkscape"
   xmlns:sodipodi="http://sodipodi.sourceforge.net/DTD/sodipodi-0.dtd"
   xmlns="http://www.w3.org/2000/svg"
   xmlns:svg="http://www.w3.org/2000/svg"><defs
   id="defs2310">
	
	
	
	
	
</defs><sodipodi:namedview
   id="namedview2308"
   pagecolor="#ffffff"
   bordercolor="#666666"
   borderopacity="1.0"
   inkscape:showpageshadow="2"
   inkscape:pageopacity="0.0"
   inkscape:pagecheckerboard="0"
   inkscape:deskcolor="#d1d1d1"
   showgrid="false"
   inkscape:zoom="1.6889849"
   inkscape:cx="165.48402"
   inkscape:cy="231.5"
   inkscape:window-width="1920"
   inkscape:window-height="1027"
   inkscape:window-x="-8"
   inkscape:window-y="-8"
   inkscape:window-maximized="1"
   inkscape:current-layer="Capa_1" />
<path
   d="M 395.195,67.805 C 351.471,24.08 293.336,0 231.5,0 169.664,0 111.529,24.08 67.805,67.805 24.081,111.53 0,169.664 0,231.5 0,293.336 24.08,351.471 67.805,395.195 111.53,438.919 169.664,463 231.5,463 293.336,463 351.471,438.92 395.195,395.195 438.919,351.47 463,293.336 463,231.5 463,169.664 438.92,111.529 395.195,67.805 Z M 384.589,384.589 C 343.697,425.48 289.329,448 231.5,448 173.671,448 119.303,425.48 78.411,384.589 37.52,343.697 15,289.329 15,231.5 15,173.671 37.52,119.303 78.411,78.411 119.303,37.52 173.671,15 231.5,15 289.329,15 343.697,37.52 384.589,78.411 425.48,119.303 448,173.671 448,231.5 c 0,57.829 -22.52,112.197 -63.411,153.089 z"
   id="path2265" /><path
   d="m 385.873,266.835 c -3.925,-4.898 -9.523,-7.976 -15.762,-8.664 l -14.668,-1.619 c -0.118,-1.867 -0.447,-3.724 -1.009,-5.528 l -4.766,-15.272 c -3.859,-12.371 -17.062,-19.293 -29.41,-15.442 l -36.52,11.268 -42.881,-18.974 c -0.037,-0.073 -0.067,-0.148 -0.107,-0.22 l -35.297,-64.311 c -6.235,-11.359 -20.55,-15.527 -31.908,-9.293 l -14.027,7.698 c -9.116,5.004 -13.595,15.211 -11.788,24.918 l -34.709,-15.358 c -5.741,-2.542 -12.126,-2.694 -17.981,-0.43 -5.855,2.263 -10.478,6.67 -13.018,12.41 l -6.474,14.631 c -5.243,11.85 0.131,25.756 12.006,31.012 l 40.66,17.813 -12.557,-1.386 c -6.239,-0.689 -12.374,1.093 -17.272,5.019 -4.899,3.925 -7.976,9.522 -8.665,15.761 l -1.755,15.904 c -1.014,9.188 3.442,17.739 10.754,22.405 l -18.214,5.682 c -5.992,1.869 -10.897,5.96 -13.813,11.52 -2.915,5.559 -3.491,11.92 -1.622,17.912 l 4.765,15.274 c 3.135,10.049 12.435,16.503 22.447,16.503 2.313,0 4.665,-0.345 6.986,-1.069 l 126.271,-39.395 47.862,87.202 c 3.02,5.503 8.002,9.501 14.029,11.256 2.178,0.635 4.398,0.949 6.605,0.948 3.9,0 7.76,-0.98 11.274,-2.91 l 7.002,-3.844 c 0.004,-0.002 0.007,-0.003 0.011,-0.005 0.005,-0.002 0.009,-0.006 0.013,-0.008 l 6.999,-3.842 c 5.503,-3.02 9.5,-8.002 11.256,-14.029 1.755,-6.026 1.059,-12.376 -1.962,-17.879 l -32.436,-59.095 67.005,7.395 v 0 c 0.878,0.097 1.753,0.145 2.625,0.145 5.316,0 10.438,-1.791 14.648,-5.163 4.898,-3.926 7.976,-9.523 8.664,-15.762 l 0.877,-7.944 c 0,-0.002 10e-4,-0.005 10e-4,-0.007 0,-0.002 0,-0.005 0,-0.007 l 0.877,-7.946 c 0.691,-6.242 -1.092,-12.376 -5.016,-17.274 z m -61.169,-32.199 c 4.471,-1.395 9.25,1.109 10.646,5.584 l 0.138,0.443 -32.933,10.052 -22.068,-2.436 z m -132.4,-79.346 25.973,47.322 -13.56,-6 -24.393,-44.442 0.439,-0.241 c 4.107,-2.254 9.285,-0.748 11.541,3.361 z m -28.929,15.879 c -2.255,-4.109 -0.747,-9.286 3.361,-11.541 l 0.439,-0.241 14.943,27.224 -13.56,-6 z m -62.927,-1.57 c 2.118,-0.818 4.427,-0.764 6.504,0.155 l 154.947,68.562 -13.104,4.043 -153.258,-67.814 0.202,-0.457 c 0.919,-2.077 2.591,-3.671 4.709,-4.489 z m -6.849,30.333 c -4.286,-1.896 -6.23,-6.927 -4.334,-11.213 l 0.202,-0.458 117.233,51.874 -28.513,-3.147 z m 14.164,46.88 c 1.522,-1.22 3.375,-1.867 5.298,-1.867 0.315,0 0.632,0.018 0.95,0.053 l 254.456,28.084 c 2.256,0.249 4.281,1.361 5.7,3.133 1.419,1.772 2.064,3.991 1.815,6.247 l -0.055,0.498 -271.353,-29.949 0.055,-0.498 c 0.249,-2.257 1.363,-4.282 3.134,-5.701 z m -27.786,66.531 c 1.054,-2.011 2.829,-3.49 4.996,-4.167 l 44.824,-13.984 c 0.115,-0.036 0.224,-0.083 0.336,-0.124 l 22.369,2.469 -72.963,22.763 -0.149,-0.478 c -0.676,-2.168 -0.468,-4.468 0.587,-6.479 z m 14.824,27.336 c -2.167,0.677 -4.469,0.469 -6.479,-0.587 -2.011,-1.054 -3.49,-2.828 -4.167,-4.995 l -0.149,-0.478 104.919,-32.734 c 0.235,-0.073 0.463,-0.159 0.686,-0.253 l 22.415,2.474 z m 196.825,58.979 c -2.18,-0.635 -3.981,-2.081 -5.074,-4.071 l -46.403,-84.543 8.766,-2.735 49.617,90.398 -0.439,0.241 c -1.989,1.095 -4.287,1.347 -6.467,0.71 z m 23.855,-19.95 c 1.092,1.991 1.345,4.288 0.709,6.468 -0.635,2.18 -2.081,3.981 -4.071,5.074 l -0.438,0.24 -44.629,-81.311 10.929,1.206 z m 55.611,-75.642 c -1.771,1.419 -3.99,2.063 -6.247,1.814 0,0 0,0 0,0 L 110.391,277.796 c -4.659,-0.514 -8.031,-4.723 -7.517,-9.381 l 0.055,-0.497 271.353,29.949 -0.055,0.497 c -0.249,2.258 -1.363,4.282 -3.135,5.702 z"
   id="path2267" /><path
   d="M 307.5,207 C 344.72,207 375,176.72 375,139.5 375,102.28 344.72,72 307.5,72 270.28,72 240,102.28 240,139.5 c 0,37.22 30.28,67.5 67.5,67.5 z m 0,-120 c 28.949,0 52.5,23.552 52.5,52.5 0,28.948 -23.551,52.5 -52.5,52.5 C 278.551,192 255,168.448 255,139.5 255,110.552 278.551,87 307.5,87 Z"
   id="path2269" /><path
   d="m 307.5,119 c 11.304,0 20.5,9.196 20.5,20.5 0,4.143 3.358,7.5 7.5,7.5 4.142,0 7.5,-3.357 7.5,-7.5 0,-19.575 -15.925,-35.5 -35.5,-35.5 -4.142,0 -7.5,3.357 -7.5,7.5 0,4.143 3.358,7.5 7.5,7.5 z"
   id="path2271" /><path
   d="m 307.5,175 c 4.142,0 7.5,-3.357 7.5,-7.5 0,-4.143 -3.358,-7.5 -7.5,-7.5 -5.557,0 -10.758,-2.187 -14.647,-6.158 -2.898,-2.959 -7.647,-3.008 -10.606,-0.11 -2.959,2.898 -3.009,7.646 -0.111,10.606 C 288.87,171.214 297.878,175 307.5,175 Z"
   id="path2273" />
<g
   id="g2277">
</g>
<g
   id="g2279">
</g>
<g
   id="g2281">
</g>
<g
   id="g2283">
</g>
<g
   id="g2285">
</g>
<g
   id="g2287">
</g>
<g
   id="g2289">
</g>
<g
   id="g2291">
</g>
<g
   id="g2293">
</g>
<g
   id="g2295">
</g>
<g
   id="g2297">
</g>
<g
   id="g2299">
</g>
<g
   id="g2301">
</g>
<g
   id="g2303">
</g>
<g
   id="g2305">
</g>
</svg>
